<svg xmlns="http://www.w3.org/2000/svg" viewBox="0 0 64 64" id="Round">
  <path d="M31.875 996.664a.5.5 0 0 0-.313.25l-12.312 21.282-12.313 21.312a.504.504 0 0 0-.062.25c-.003.01.003.023 0 .031a.504.504 0 0 0 0 .062 1.022 1.022 0 0 0-.031.281c0 .474.324.823.719 1.094.394.271.88.503 1.53.719 1.301.432 3.127.809 5.376 1.125 4.497.632 10.704 1 17.531 1 6.827 0 13.003-.368 17.5-1 2.249-.316 4.075-.693 5.375-1.125.65-.216 1.137-.448 1.531-.719.395-.27.75-.62.75-1.094 0-.087-.042-.17-.062-.25a.504.504 0 0 0 0-.094.504.504 0 0 0-.063-.281l-12.312-21.312-12.313-21.282a.5.5 0 0 0-.531-.25zm-.188 1.938h.563l11.594 20.094 11.406 19.75c-.127-.048-.235-.11-.375-.157-1.3-.432-3.127-.777-5.375-1.093-4.497-.632-10.673-1.032-17.5-1.032-6.828 0-13.034.4-17.531 1.032-2.249.316-4.075.661-5.375 1.093-.14.047-.249.109-.375.157l11.406-19.75 11.562-20.094zm-.25 4v2h1v-2h-1zm0 6v2h1v-2h-1zm0 6v2h1v-2h-1zm0 6v2h1v-2h-1zm0 6v2h1v-2h-1zm0 6v2h1v-2h-1zm.563 4.562c6.789 0 12.918.378 17.344 1 2.213.311 3.992.697 5.187 1.094.598.199 1.05.414 1.313.594.262.18.28.277.28.281 0 0-.018.101-.28.281-.263.18-.715.364-1.313.563-1.195.397-2.974.783-5.187 1.094-4.426.622-10.555 1.03-17.344 1.03-6.789 0-12.95-.408-17.375-1.03-2.213-.311-3.993-.697-5.188-1.094-.597-.199-1.05-.382-1.312-.563-.262-.18-.281-.276-.281-.28 0 0 .019-.102.281-.282s.715-.395 1.312-.594c1.195-.397 2.975-.783 5.188-1.094 4.426-.622 10.586-1 17.375-1zm-.563 1.438v2h1v-2h-1z" color="#000" font-family="Sans" font-weight="400" overflow="visible" style="text-indent:0;text-align:start;line-height:normal;text-transform:none;block-progression:tb;marker:none;-inkscape-font-specification:Sans" transform="translate(0 -988.362)" fill="#ffffff" class="color000000 svgShape"></path>
</svg>
