<svg xmlns="http://www.w3.org/2000/svg" enable-background="new 0 0 67 67" viewBox="0 0 67 67" id="Cuboid">
  <path d="M52.3 44.9v-3c0-.6-.5-1-1-1s-1 .4-1 1v2.6h-.8c-.5 0-1 .5-1 1s.5 1 1 1h1.6l.1.1c.1.1.3.1.5.1.3 0 .7-.2.9-.5C52.8 45.8 52.7 45.3 52.3 44.9 52.4 45 52.4 45 52.3 44.9zM51.3 38.9c.5 0 1-.5 1-1v-4c0-.6-.5-1-1-1s-1 .4-1 1v4C50.3 38.5 50.8 38.9 51.3 38.9zM59.1 48.9l-3.5-2c-.5-.3-1.1-.1-1.4.4-.1.2-.2.5-.1.8.1.3.2.5.5.6l3.5 2c.2.1.3.1.5.1.4 0 .7-.2.9-.5.1-.2.1-.3.1-.5C59.6 49.4 59.4 49.1 59.1 48.9zM51.3 30.9c.5 0 1-.5 1-1v-4c0-.6-.5-1-1-1s-1 .4-1 1v4C50.3 30.5 50.8 30.9 51.3 30.9z" fill="#ffffff" class="color000000 svgShape"></path>
  <path d="M66.5,21.4c0-0.1,0-0.1,0-0.2c0,0,0-0.1,0-0.1c0-0.1-0.1-0.1-0.1-0.2c0,0,0,0-0.1-0.1c-0.1-0.1-0.1-0.1-0.2-0.2l-14.2-8.3
		c0,0-0.1,0-0.1,0c0,0,0,0,0,0c-0.1,0-0.1,0-0.2-0.1c0,0-0.1,0-0.1,0c0,0-0.1,0-0.1,0H1.5c0,0,0,0,0,0c-0.1,0-0.2,0-0.3,0
		c0,0-0.1,0-0.1,0c0,0-0.1,0-0.1,0c0,0,0,0-0.1,0c0,0-0.1,0-0.1,0.1c-0.1,0-0.1,0.1-0.1,0.1c0,0,0,0.1-0.1,0.1
		c-0.1,0.1-0.1,0.2-0.1,0.3c0,0,0,0,0,0c0,0,0,0,0,0c0,0.1,0,0.2,0,0.3v32.3c0,0,0,0,0,0c0,0,0,0,0,0c0,0,0,0,0,0c0,0.1,0,0.2,0,0.2
		c0,0,0,0,0,0c0,0,0,0.1,0,0.1c0,0,0,0.1,0,0.1c0,0,0,0.1,0.1,0.1c0,0,0,0,0.1,0.1c0,0,0,0.1,0.1,0.1c0,0,0,0,0,0
		c0.1,0.1,0.1,0.1,0.2,0.1l14.2,8.3c0.1,0,0.2,0.1,0.2,0.1c0.1,0,0.2,0,0.3,0h49.8c0,0,0,0,0,0c0.1,0,0.2,0,0.3-0.1c0,0,0.1,0,0.1,0
		c0.1,0,0.2-0.1,0.3-0.2c0,0,0,0,0,0c0-0.1,0.1-0.1,0.1-0.2c0,0,0,0,0-0.1c0-0.1,0.1-0.1,0.1-0.2c0-0.1,0-0.1,0-0.2c0,0,0,0,0-0.1
		V21.5C66.5,21.5,66.5,21.5,66.5,21.4C66.5,21.4,66.5,21.4,66.5,21.4z M5.5,44.5h-3V14.9l11.4,6.7l0.8,0.5v30l-9.5-5.6h0.3
		c0.5,0,1-0.5,1-1S6,44.5,5.5,44.5z M51.3,14.9c0.2,0,0.4-0.1,0.6-0.2l9.9,5.8h-9.5v-2.6c0-0.6-0.5-1-1-1s-1,0.4-1,1v2.6H15.9
		L5.2,14.2h45.2C50.5,14.6,50.9,14.9,51.3,14.9z M16.7,46c0.2,0.3,0.5,0.5,0.8,0.5h4c0.5,0,1-0.5,1-1s-0.5-1-1-1h-4
		c-0.4,0-0.7,0.2-0.8,0.5V22.5h33.9c0.2,0.2,0.5,0.4,0.8,0.4s0.6-0.2,0.8-0.4h12.4v29.6l-1.9-1.1c-0.5-0.3-1.1-0.1-1.4,0.3
		c-0.3,0.5-0.1,1.1,0.4,1.4l0.3,0.2H16.7V46z" fill="#ffffff" class="color000000 svgShape"></path>
  <path d="M45.5 44.5h-4c-.5 0-1 .5-1 1s.5 1 1 1h4c.5 0 1-.5 1-1S46 44.5 45.5 44.5zM37.5 44.5h-4c-.5 0-1 .5-1 1s.5 1 1 1h4c.5 0 1-.5 1-1S38 44.5 37.5 44.5zM29.5 44.5h-4c-.5 0-1 .5-1 1s.5 1 1 1h4c.5 0 1-.5 1-1S30 44.5 29.5 44.5zM9.5 46.5h4c.5 0 1-.5 1-1s-.5-1-1-1h-4c-.5 0-1 .5-1 1S9 46.5 9.5 46.5z" fill="#ffffff" class="color000000 svgShape"></path>
</svg>
