<svg xmlns="http://www.w3.org/2000/svg" viewBox="0 0 64 64" id="Science">
  <path d="M32 995.832c-4.736 0-9.013.545-12.156 1.469-1.571.462-2.882 1.01-3.812 1.656-.889.617-1.479 1.373-1.532 2.25a.5.5 0 0 0 0 .062v.062a.5.5 0 0 0 0 .031v38.031a.5.5 0 0 0 0 .062c.028.903.622 1.68 1.532 2.313.93.646 2.24 1.194 3.812 1.656 3.143.923 7.42 1.469 12.156 1.469 4.737 0 9.014-.546 12.157-1.47 1.571-.461 2.85-1.01 3.78-1.655.92-.64 1.55-1.428 1.563-2.344a.5.5 0 0 0 0-.031v-38.031a.5.5 0 0 0 0-.031v-.062a.5.5 0 0 0 0-.031c-.04-.89-.664-1.657-1.562-2.281-.93-.646-2.21-1.195-3.781-1.656-3.143-.924-7.42-1.47-12.157-1.47zm0 1c4.661 0 8.891.552 11.907 1.438 1.507.443 2.708.98 3.5 1.531.736.512 1.05 1.008 1.093 1.437a.5.5 0 0 0 0 .125v.157c-.074.41-.4.862-1.093 1.343-.792.55-1.993 1.089-3.5 1.532-3.016.886-7.246 1.437-11.907 1.437-4.66 0-8.89-.551-11.906-1.437-1.508-.443-2.708-.981-3.5-1.532-.693-.481-1.02-.932-1.094-1.343v-.157a.5.5 0 0 0 0-.125c.044-.429.358-.925 1.094-1.437.792-.55 1.992-1.088 3.5-1.531 3.016-.886 7.246-1.438 11.906-1.438zm-.468 4v2h1v-2h-1zM15.5 1003.27c.168.153.332.298.532.437.93.646 2.24 1.195 3.812 1.656 3.038.893 7.14 1.434 11.688 1.47v2h1v-2c4.522-.04 8.6-.581 11.625-1.47 1.571-.461 2.85-1.01 3.78-1.656.202-.14.395-.284.563-.437v34.187a5.51 5.51 0 0 0-.562-.437c-.93-.646-2.21-1.195-3.781-1.657-3.143-.923-7.42-1.468-12.157-1.468-4.736 0-9.013.545-12.156 1.468-1.571.462-2.882 1.01-3.812 1.657a5.11 5.11 0 0 0-.532.437v-34.187zm16.032 9.562v2h1v-2h-1zm0 6v2h1v-2h-1zm0 6v2h1v-2h-1zm0 6v2h1v-2h-1zm-1.25 4.063c.567-.017 1.136 0 1.718 0 4.661 0 8.891.551 11.907 1.437 1.507.443 2.708.981 3.5 1.531.693.482 1.019.933 1.093 1.344v.125a.5.5 0 0 0 .032.156c-.042.43-.386.924-1.125 1.438-.792.55-1.993 1.088-3.5 1.531-3.016.886-7.246 1.438-11.907 1.438-4.66 0-8.89-.552-11.906-1.438-1.508-.443-2.708-.98-3.5-1.531-.757-.526-1.097-1.031-1.125-1.469a.5.5 0 0 0 .031-.125v-.125c.075-.41.401-.862 1.094-1.344.792-.55 1.992-1.088 3.5-1.53 2.639-.776 6.214-1.32 10.188-1.438zm1.25 1.937v2h1v-2h-1z" color="#000" font-family="Sans" font-weight="400" overflow="visible" style="text-indent:0;text-align:start;line-height:normal;text-transform:none;block-progression:tb;marker:none;-inkscape-font-specification:Sans" transform="translate(0 -988.362)" fill="#ffffff" class="color000000 svgShape"></path>
</svg>
