<svg xmlns="http://www.w3.org/2000/svg" enable-background="new 0 0 67 67" viewBox="0 0 67 67" id="Pyramid">
  <path d="M39.7 44L37 42.6c-.5-.2-1.1 0-1.3.5-.2.5 0 1.1.5 1.3l2.7 1.3c.5.2 1.1 0 1.3-.5C40.4 44.8 40.2 44.2 39.7 44zM50.5 49.3l-2.7-1.3c-.5-.2-1.1 0-1.3.5-.2.5 0 1.1.5 1.3l2.7 1.3c.5.2 1.1 0 1.3-.5C51.2 50.1 51 49.5 50.5 49.3zM26.3 46.7l2.7-1.3c.5-.2.7-.8.5-1.3-.2-.5-.8-.7-1.3-.5l-2.7 1.3c-.5.2-.7.8-.5 1.3C25.2 46.7 25.8 46.9 26.3 46.7zM15.5 52l2.7-1.3c.5-.2.7-.8.5-1.3-.2-.5-.8-.7-1.3-.5l-2.7 1.3c-.5.2-.7.8-.5 1.3C14.4 52 15 52.2 15.5 52zM20.9 49.3l2.7-1.3c.5-.2.7-.8.5-1.3-.2-.5-.8-.7-1.3-.5L20 47.5c-.5.2-.7.8-.5 1.3C19.8 49.4 20.4 49.6 20.9 49.3zM45.1 46.6l-2.7-1.3c-.5-.2-1.1 0-1.3.5-.2.5 0 1.1.5 1.3l2.7 1.3c.5.2 1.1 0 1.3-.5C45.8 47.5 45.6 46.9 45.1 46.6z" fill="#ffffff" class="color000000 svgShape"></path>
  <path d="M9.2,54.6C9.2,54.6,9.2,54.6,9.2,54.6l23.8,11.8c0,0,0,0,0,0c0.3,0.1,0.6,0.1,0.8,0c0,0,0,0,0,0l23.8-11.7
		c0.5-0.2,0.6-0.9,0.5-1.3C43.6,18.9,49.2,30.9,34.4,1.1c-0.3-0.7-1.4-0.7-1.8,0c-0.1,0.1-12.2,24.7-12,24.3l-11.9,28c0,0,0,0,0,0
		C8.6,53.8,8.7,54.4,9.2,54.6z M52.3,52.4l2.7,1.3c0,0,0.1,0,0.1,0l-13.9,6.9l-6.7,3.3l0-20.9c0.1-0.1,0.2-0.2,0.3-0.3
		c0.2-0.4,0.1-0.9-0.3-1.2v-0.3l0-8.8c1.1-0.5,3.2-1.6,10.4-5.2l10.4,24.6l-2.2-1.1c-0.5-0.2-1.1,0-1.3,0.5
		C51.6,51.5,51.8,52.1,52.3,52.4z M42.6,25.5l0.6,0.3L34.5,30v-8.6l0.1,0c0.5,0.2,1.1,0,1.3-0.5c0.2-0.5,0-1.1-0.5-1.3l-0.9-0.5V5.8
		l8.8,17.8c-0.4-0.1-0.9,0.1-1.1,0.5C41.9,24.6,42.1,25.2,42.6,25.5z M22.1,27.1l1,0.5l9.4,4.6v9.1l-1.7,0.9
		c-0.5,0.2-0.7,0.8-0.5,1.3c0.2,0.5,0.8,0.7,1.3,0.5l0.8-0.4v20.3l-6.8-3.4L12,53.7l0.9-0.4c0.5-0.2,0.7-0.8,0.5-1.3
		c-0.2-0.5-0.8-0.7-1.3-0.5l-0.3,0.1L22.1,27.1z M32.5,19.2l-0.6,0.3c-0.5,0.2-0.7,0.8-0.5,1.3c0.2,0.4,0.7,0.6,1.1,0.5V30l-8.7-4.3
		l0.9-0.4c0.5-0.2,0.7-0.8,0.5-1.3c-0.2-0.5-0.8-0.7-1.3-0.5l0,0l8.8-17.8V19.2z" fill="#ffffff" class="color000000 svgShape"></path>
  <path d="M40.8 22.3L38.1 21c-.5-.2-1.1 0-1.3.5-.2.5 0 1.1.5 1.3l2.7 1.3c.5.2 1.1 0 1.3-.5C41.5 23.2 41.3 22.6 40.8 22.3zM27.4 24l2.7-1.3c.5-.2.7-.8.5-1.3s-.8-.7-1.3-.5l-2.7 1.3C26 22.4 25.8 23 26 23.5 26.3 24 26.9 24.2 27.4 24z" fill="#ffffff" class="color000000 svgShape"></path>
</svg>
